# xmcd
#
# Track frame offsets: 
#        150
#        19474
#        36466
#        55178
#        73340
#        90337
#        103955
#        121126
#        137816
#        151854
#        170550
#        188643
#        203983
#        221233
#        239377
#        266627
#
# Disc length: 3567 seconds
#
# Revision: 0
# Processed by: cddbd v1.5.2PL0 Copyright (c) Steve Scherf et al.
# Submitted via: ExactAudioCopy v0.99pb5
#
DISCID=f20ded10
DTITLE=Various Artist - Total Country Now 3
DYEAR=2006
DGENRE=Country
TTITLE0=Tonight I Wanna Cry
TTITLE1=Bless The Broken Road
TTITLE2=Alcohol
TTITLE3=Who You'd Be Today
TTITLE4=Jesus, Take the Wheel
TTITLE5=Get Drunk and Be Somebody
TTITLE6=Mississippi Girl
TTITLE7=I May Hate Myself in the Morning
TTITLE8=Tequila Makes Her Clothes Fall Off
TTITLE9=Making Memories of Us
TTITLE10=Honky Tonk Badonkadonk
TTITLE11=Some Beach
TTITLE12=As Good As I Once Was
TTITLE13=A Real Fine Place to Start
TTITLE14=All Jacked Up
TTITLE15=Data
EXTD=
EXTT0=
EXTT1=
EXTT2=
EXTT3=
EXTT4=
EXTT5=
EXTT6=
EXTT7=
EXTT8=
EXTT9=
EXTT10=
EXTT11=
EXTT12=
EXTT13=
EXTT14=
EXTT15=
PLAYORDER=
